<svg width="21" height="21" viewBox="0 0 21 21" fill="none" xmlns="http://www.w3.org/2000/svg">
<path d="M20.0618 1.34413L18.3029 4.29875C18.214 4.44733 18.0303 4.50881 17.8704 4.44477L12.6945 2.35262C12.4766 2.26467 12.233 2.41155 12.2142 2.64638C12.1629 3.28427 12.2526 3.92728 12.4774 4.52845C12.5424 4.70095 12.4971 4.89565 12.3672 5.02544L6.43739 10.9407C5.03999 11.0269 3.98018 12.2386 4.08616 13.6374C4.18445 14.9328 5.27246 15.9507 6.57243 15.9592C7.9194 15.9678 9.02023 14.926 9.10228 13.6032L10.8262 11.8808L14.8372 15.8841C14.9449 15.9917 15.1192 15.9917 15.2269 15.8841L16.8269 14.283C16.9346 14.1754 16.9346 14.0012 16.8269 13.8936L12.8176 9.89117L15.2389 7.47197C15.3731 7.3379 15.5645 7.2824 15.7508 7.31912C18.0038 7.75975 20.2439 6.38577 20.8439 4.1365C21.0875 3.22535 21.0293 2.26552 20.6883 1.39792C20.5815 1.12723 20.2114 1.09478 20.0627 1.34498L20.0618 1.34413ZM6.59636 14.3846C6.05535 14.3846 5.62117 13.9303 5.65536 13.3829C5.68441 12.9141 6.06646 12.5324 6.53653 12.5025C7.08438 12.4684 7.53907 12.9022 7.53907 13.4427C7.53907 13.9832 7.11686 14.3846 6.59636 14.3846ZM17.4978 5.63089L17.4662 5.71457C17.414 5.85376 17.2593 5.92379 17.12 5.8717L14.0697 4.72913C13.9304 4.67704 13.8603 4.52248 13.9124 4.38329L13.944 4.2996C13.9962 4.16041 14.1509 4.09038 14.2902 4.14247L17.3405 5.28504C17.4799 5.33713 17.5499 5.49169 17.4978 5.63089Z" fill="#247AF2"/>
<path d="M14.0038 2.27835L15.6542 3.00505C15.8021 3.06995 15.9722 3.00847 16.0534 2.85903L17.3063 0.555107C17.4234 0.340769 17.3003 0.0658016 17.0721 0.0324981C16.0918 -0.114379 15.0936 0.240859 14.3816 1.01196C14.1679 1.24167 13.9867 1.50298 13.8432 1.78819C13.7509 1.97093 13.8269 2.19979 14.0047 2.27835H14.0038Z" fill="#247AF2"/>
<path d="M2.24773 2.53699C2.35286 2.65569 2.53661 2.66166 2.64943 2.54894L3.48702 1.71209C3.59898 1.60022 3.59385 1.41663 3.47505 1.31159L3.37933 1.2262C3.26993 1.12885 3.10412 1.13397 3.0007 1.2373L2.17508 2.06391C2.07252 2.16724 2.06739 2.33204 2.16397 2.44049L2.24859 2.53528L2.24773 2.53699Z" fill="#247AF2"/>
<path d="M6.45449 4.31063L5.24854 5.51554C5.14597 5.61801 5.13999 5.78282 5.23657 5.89212L7.62968 8.64009C7.7348 8.75964 7.91941 8.76562 8.03138 8.6529L9.59202 7.09361C9.70484 6.98089 9.69886 6.7973 9.5792 6.69226L6.8314 4.29868C6.72201 4.20304 6.55705 4.20816 6.45449 4.31063Z" fill="#247AF2"/>
<path d="M2.8503 7.88778L3.8648 6.88697C3.97335 6.78022 3.9742 6.60517 3.86651 6.49672C3.75968 6.38912 3.75968 6.21577 3.86651 6.10818L7.04934 2.92043C7.15703 2.81284 7.15703 2.63863 7.04934 2.53104L6.65533 2.13737C6.5391 2.02124 6.5485 1.82825 6.67841 1.72748C7.22968 1.2971 7.93052 1.11863 8.61084 1.22024C8.87237 1.25953 9.03476 0.943569 8.8493 0.755703C8.84417 0.750579 8.83819 0.744602 8.83306 0.739478C7.84505 -0.246818 6.24423 -0.246818 5.25622 0.739478L1.87083 4.12192C1.76314 4.22952 1.58964 4.22952 1.48195 4.12192L1.47255 4.11253C1.36486 4.00578 1.19051 4.00578 1.08367 4.11253L0.080279 5.1159C-0.0274107 5.2235 -0.0274107 5.3977 0.080279 5.5053L2.46142 7.88692C2.56825 7.99452 2.74261 7.99452 2.8503 7.88778Z" fill="#247AF2"/>
<path d="M19.709 11.2822C19.709 12.2275 19.4628 13.1617 18.997 13.9841C18.5312 14.8064 17.856 15.4981 17.0449 15.9848L10.4964 19.9104L3.94781 15.9848C3.13672 15.4989 2.46152 14.8064 1.99572 13.9841C1.52992 13.1617 1.28378 12.2275 1.28378 11.2822V8.02188L0.3479 7.12524V11.2822C0.3479 12.3881 0.635928 13.4819 1.18207 14.4443C1.72735 15.4067 2.51793 16.2162 3.46663 16.7858L10.4955 21L17.5244 16.7858C18.474 16.2162 19.2637 15.4067 19.809 14.4443C20.3543 13.4819 20.6431 12.3881 20.6431 11.2822V7.12524L19.7081 8.02188V11.2822H19.709Z" fill="#247AF2"/>
</svg>
